<svg width="139" height="139" viewBox="0 0 139 139" fill="none" xmlns="http://www.w3.org/2000/svg">
<circle cx="69.5" cy="69.5" r="43.5" fill="white"/>
<g filter="url(#filter0_f_1792_14915)">
<circle cx="69.5" cy="69.5" r="34.5" fill="#7746E8"/>
</g>
<circle cx="69.5" cy="69.5" r="34.5" fill="#7746E8"/>
<path d="M77.1309 55.1602C77.6746 54.6164 78.5714 54.6164 79.1152 55.1602L84.8379 60.8828C85.0996 61.1445 85.25 61.5003 85.25 61.875C85.25 62.0527 85.2101 62.2067 85.1572 62.3477V62.3535L85.1396 62.3984C85.0657 62.5832 84.9552 62.7508 84.8232 62.8828L79.1152 68.5898C78.8351 68.87 78.4781 69.002 78.123 69.002C77.768 69.0019 77.411 68.87 77.1309 68.5898C76.5873 68.046 76.5872 67.1492 77.1309 66.6055L80.458 63.2793H56.1543C55.3899 63.2793 54.7501 62.6637 54.75 61.8906C54.75 61.1218 55.3855 60.4863 56.1543 60.4863H80.4736L77.1309 57.1445C76.5871 56.6008 76.5873 55.704 77.1309 55.1602Z" fill="white" stroke="white" stroke-width="0.5"/>
<path d="M60.8848 71.376C61.4286 70.8322 62.3254 70.8322 62.8691 71.376C63.4127 71.9198 63.4129 72.8166 62.8691 73.3604L59.543 76.6865H83.8457C84.6145 76.6865 85.25 77.322 85.25 78.0908C85.25 78.8597 84.6145 79.4951 83.8457 79.4951H59.5264L62.8691 82.8369C63.4129 83.3807 63.4128 84.2775 62.8691 84.8213C62.589 85.1014 62.232 85.2334 61.877 85.2334C61.5219 85.2334 61.1649 85.1014 60.8848 84.8213L55.1621 79.0986C54.9004 78.8369 54.7501 78.4811 54.75 78.1064C54.75 77.9322 54.7883 77.7633 54.8428 77.6182V77.6123L54.8604 77.5674C54.9343 77.3826 55.0448 77.215 55.1768 77.083L60.8848 71.376Z" fill="white" stroke="white" stroke-width="0.5"/>
<defs>
<filter id="filter0_f_1792_14915" x="0" y="0" width="139" height="139" filterUnits="userSpaceOnUse" color-interpolation-filters="sRGB">
<feFlood flood-opacity="0" result="BackgroundImageFix"/>
<feBlend mode="normal" in="SourceGraphic" in2="BackgroundImageFix" result="shape"/>
<feGaussianBlur stdDeviation="17.5" result="effect1_foregroundBlur_1792_14915"/>
</filter>
</defs>
</svg>
