<svg width="147" height="51" viewBox="0 0 147 51" fill="none" xmlns="http://www.w3.org/2000/svg">
<path d="M1.69681 21.5544L10.4731 25.2318L28.836 32.6373V15.3923C28.836 12.6645 27.1897 10.1962 24.6435 9.10641L3.90867 0.231443C2.0639 -0.558163 0 0.769484 0 2.74578V19.0317C0 20.1305 0.667725 21.1232 1.69681 21.5544Z" fill="#7746E8"/>
<path d="M23.7391 19.8834C22.8453 20.3771 15.1744 23.8833 11.4506 25.5747L5.65548 23.1062L24.6067 13.3662C25.879 12.7123 28.0588 11.9367 28.4993 13.2976C28.7574 14.0949 28.8261 14.8184 28.7661 15.2893C27.2301 17.6892 24.8562 19.2663 23.7391 19.8834Z" fill="#643AC3"/>
<path d="M0.209462 48.2542V32.056C0.209462 30.9537 0.877187 29.9607 1.91015 29.5295C8.96036 26.5866 20.9949 21.4672 23.6692 19.952C26.5738 18.3064 28.3239 15.8836 28.836 14.8779V35.6331C28.836 38.3541 27.1976 40.8177 24.6606 41.9116L4.12498 50.7656C2.27942 51.5613 0.209462 50.2337 0.209462 48.2542Z" fill="#7746E8"/>
<path d="M0.209462 42.0313V41.0027L28.836 28.866V29.9631L0.209462 42.0313Z" fill="white"/>
<path d="M49.0211 36.5457H39.4068V10.6266H49.0211C57.2404 10.6266 62.7074 15.9215 62.7074 23.5491C62.7074 31.1398 57.2404 36.5457 49.0211 36.5457ZM45.0623 15.255V31.9173H49.0211C54.0734 31.9173 56.9011 28.4738 56.9011 23.5491C56.9011 18.5875 54.0734 15.255 49.0211 15.255H45.0623Z" fill="white"/>
<path d="M74.7341 17.5137H75.639V22.2532H73.5276C70.3606 22.2532 69.1541 24.3267 69.1541 27.2149V36.5457H63.8379V17.5137H68.6639L69.1541 20.3648C70.2098 18.6615 71.7179 17.5137 74.7341 17.5137Z" fill="white"/>
<path d="M78.8052 15.4772C77.0709 15.4772 75.7135 14.2183 75.7135 12.552C75.7135 10.8488 77.0709 9.58984 78.8052 9.58984C80.5396 9.58984 81.8969 10.8488 81.8969 12.552C81.8969 14.2183 80.5396 15.4772 78.8052 15.4772ZM76.1283 36.5457V17.5137H81.4821V36.5457H76.1283Z" fill="white"/>
<path d="M94.3863 17.2915C99.6271 17.2545 103.397 21.0683 103.397 27.0667C103.397 32.9911 99.6271 36.7679 94.4241 36.7679C91.7471 36.7679 89.8243 35.6941 88.5801 34.139V43.9512H83.2639V17.5137H87.9014L88.4292 20.1426C89.6734 18.5134 91.634 17.2915 94.3863 17.2915ZM93.2176 32.5098C96.1207 32.5098 98.0059 30.2511 98.0059 26.9927C98.0059 23.7713 96.1207 21.5497 93.2176 21.5497C90.3144 21.5497 88.5046 23.7713 88.5046 26.9927C88.5046 30.2511 90.3144 32.5098 93.2176 32.5098Z" fill="white"/>
<path d="M104.465 36.5457V10.6266H109.781V36.5457H104.465Z" fill="white"/>
<path d="M130.075 32.1395H130.678V36.5457H127.963C125.211 36.5457 124.344 35.2498 124.382 33.4354C123.024 35.546 121.064 36.7679 118.047 36.7679C113.862 36.7679 110.846 34.8055 110.846 31.1768C110.846 27.1408 113.938 24.8451 119.744 24.8451H123.59V23.9194C123.59 22.2162 122.346 21.1053 120.121 21.1053C118.047 21.1053 116.652 22.031 116.426 23.4381H111.299C111.676 19.7353 115.144 17.2915 120.272 17.2915C125.701 17.2915 128.831 19.6613 128.831 24.2156V30.9546C128.831 31.9544 129.245 32.1395 130.075 32.1395ZM123.59 28.6959V28.3257H119.706C117.482 28.3257 116.2 29.2143 116.2 30.8065C116.2 32.1395 117.293 32.9911 119.065 32.9911C121.855 32.9911 123.552 31.2879 123.59 28.6959Z" fill="white"/>
<path d="M141.746 17.5137H142.651V22.2532H140.539C137.372 22.2532 136.166 24.3267 136.166 27.2149V36.5457H130.849V17.5137H135.675L136.166 20.3648C137.221 18.6615 138.729 17.5137 141.746 17.5137Z" fill="white"/>
<path d="M140.59 33.6946C140.59 31.8803 141.948 30.5843 143.795 30.5843C145.605 30.5843 147 31.8803 147 33.6946C147 35.472 145.605 36.7679 143.795 36.7679C141.948 36.7679 140.59 35.472 140.59 33.6946Z" fill="white"/>
</svg>
