<svg width="38" height="38" viewBox="0 0 38 38" fill="none" xmlns="http://www.w3.org/2000/svg">
<rect width="38" height="38" rx="19" fill="white"/>
<path d="M23.489 27.5498C23.0381 27.5498 22.6066 27.3239 22.3527 26.9313L14.9149 15.4376V26.1962C14.9149 26.9433 14.3091 27.5499 13.5612 27.5499C12.8133 27.5499 12.2075 26.9433 12.2075 26.1962V10.8545C12.2075 10.2546 12.6026 9.72669 13.178 9.55662C13.7541 9.38402 14.3718 9.61584 14.6975 10.1201L22.1353 21.6123V10.8537C22.1353 10.1066 22.7411 9.5 23.489 9.5C24.2369 9.5 24.8427 10.1066 24.8427 10.8537V26.1954C24.8427 26.7953 24.4476 27.3232 23.8723 27.4933C23.7454 27.5322 23.6159 27.5498 23.489 27.5498Z" fill="#1E1E1E"/>
<path d="M26.1963 17.6215H10.8546C10.1058 17.6215 9.5 17.0157 9.5 16.2678C9.5 15.5207 10.1058 14.9141 10.8537 14.9141H26.1954C26.9442 14.9141 27.55 15.5207 27.55 16.2678C27.55 17.0157 26.9442 17.6215 26.1963 17.6215Z" fill="#1E1E1E"/>
<path d="M26.1963 22.1352H10.8546C10.1058 22.1352 9.5 21.5285 9.5 20.7814C9.5 20.0335 10.1058 19.4277 10.8537 19.4277H26.1954C26.9434 19.4277 27.5492 20.0344 27.5492 20.7814C27.55 21.5285 26.9442 22.1352 26.1963 22.1352Z" fill="#1E1E1E"/>
</svg>
