<svg width="38" height="38" viewBox="0 0 38 38" fill="none" xmlns="http://www.w3.org/2000/svg">
<path d="M19 0C8.50676 0 0 8.50626 0 18.9998C0 29.4929 8.50676 38 19 38C29.4932 38 37.9998 29.4929 37.9998 18.9998C37.9998 8.50626 29.4931 0 19 0ZM21.3355 22.2256V30.6065H16.4713V22.2142C11.2642 21.9129 7.369 20.7018 7.369 19.2527C7.369 17.8039 11.2642 16.5929 16.4713 16.2911V13.9427H9.84929V9.07866H27.9582V13.9427H21.3355L21.3359 16.2799C26.6399 16.5621 30.6313 17.7862 30.6313 19.2527C30.6312 20.7196 26.6399 21.9438 21.3355 22.2256Z" fill="#1BA27A"/>
</svg>
